<svg class="breed-dna-svg" xmlns="http://www.w3.org/2000/svg" viewBox="0 0 74.81 74.8">
        <title>dna</title>
        <g data-name="Calque 2">
            <g data-name="Calque 1">
                <path d="M20.72,52.75l0-3.33h-.19c-7.21,0-15.41.38-20,5A1.66,1.66,0,0,0,0,55.56a1.66,1.66,0,0,0,1.67,1.66,1.65,1.65,0,0,0,1.17-.48c3.68-3.69,11.11-4,17.67-4Z"/>
                <path d="M56.75,2.82a1.66,1.66,0,0,0,0-2.35,1.7,1.7,0,0,0-2.35,0c-7,7-6,15.38-5,23.51.95,7.8,1.85,15.17-4.2,21.22C41.29,49.13,33.74,49.46,27,49.46h-.47v3.33H27c7.43,0,15.76-.41,20.59-5.24,7.2-7.2,6.16-15.72,5.15-24C51.8,15.9,50.92,8.66,56.75,2.82Z"/>
                <path d="M29.6,29.58c3.34-3.34,7.22-4.83,12.6-4.83a52.12,52.12,0,0,1,6.23.46L48,21.81a49.77,49.77,0,0,0-5.71-.38c-6.28,0-11,1.85-15,5.8C21.87,32.61,22,42,22,51.18c.07,8.19.15,16.66-4,20.78a1.66,1.66,0,1,0,2.35,2.35c5.11-5.11,5-14.29,4.95-23.18C25.28,42.7,25.21,34,29.6,29.58Z"/>
                <path d="M74.32,18A1.71,1.71,0,0,0,72,18c-3.35,3.36-7.25,4.85-12.65,4.85a51,51,0,0,1-5.7-.39L54,25.89a51.77,51.77,0,0,0,5.28.32c6.29,0,11.07-1.85,15-5.81a1.66,1.66,0,0,0,.49-1.18A1.64,1.64,0,0,0,74.32,18Z"/>
                <path d="M27.1,40.76a1.24,1.24,0,0,0,.16,1.76l6,5a1.26,1.26,0,0,0,.8.28,1.24,1.24,0,0,0,1-.45,1.25,1.25,0,0,0-.16-1.76l-6-4.95A1.25,1.25,0,0,0,27.1,40.76Z"/>
                <path d="M38.77,46.34a1.21,1.21,0,0,0,.91-.4,1.25,1.25,0,0,0-.07-1.77L30.12,35.4a1.25,1.25,0,1,0-1.7,1.84L37.92,46A1.25,1.25,0,0,0,38.77,46.34Z"/>
                <path d="M42.85,44.57a1.25,1.25,0,0,0,.88-2.15L32.13,31.07a1.25,1.25,0,1,0-1.75,1.79L42,44.21A1.24,1.24,0,0,0,42.85,44.57Z"/>
                <path d="M45.52,41.19a1.29,1.29,0,0,0,.89-.37,1.25,1.25,0,0,0,0-1.77L35.83,28.68a1.25,1.25,0,1,0-1.75,1.79L44.64,40.83A1.26,1.26,0,0,0,45.52,41.19Z"/>
                <path d="M48.06,36.32a1.26,1.26,0,0,0,0-1.77l-7.92-7.74a1.24,1.24,0,0,0-1.74,1.78l7.91,7.75a1.26,1.26,0,0,0,.88.36A1.24,1.24,0,0,0,48.06,36.32Z"/>
                <path d="M48,28.55l-2.36-2.31A1.25,1.25,0,1,0,43.93,28l2.36,2.32A1.25,1.25,0,1,0,48,28.55Z"/>
                <path d="M17.61,67.83,7.05,57.46A1.25,1.25,0,1,0,5.3,59.25L15.86,69.62a1.27,1.27,0,0,0,.87.35,1.25,1.25,0,0,0,.88-2.14Z"/>
                <path d="M9.57,55.61a1.26,1.26,0,0,0,0,1.77l7.92,7.74a1.24,1.24,0,0,0,.87.36,1.27,1.27,0,0,0,.9-.38,1.25,1.25,0,0,0,0-1.76l-7.92-7.75A1.26,1.26,0,0,0,9.57,55.61Z"/>
                <path d="M18.38,59.48a1.25,1.25,0,0,0,.88-2.14L16.9,55a1.25,1.25,0,1,0-1.75,1.78l2.36,2.32A1.24,1.24,0,0,0,18.38,59.48Z"/>
                <path d="M56,6.17a1.25,1.25,0,0,0,0,1.77L66.58,18.31a1.24,1.24,0,0,0,.87.36,1.27,1.27,0,0,0,.9-.38,1.25,1.25,0,0,0,0-1.76L57.77,6.16A1.25,1.25,0,0,0,56,6.17Z"/>
                <path d="M63.16,20.54a1.23,1.23,0,0,0,.89-.37,1.26,1.26,0,0,0,0-1.77l-7.92-7.75a1.25,1.25,0,0,0-1.74,1.79l7.91,7.75A1.29,1.29,0,0,0,63.16,20.54Z"/>
                <path d="M54.35,16.67a1.24,1.24,0,0,0,0,1.77l2.36,2.32a1.27,1.27,0,0,0,.87.35,1.22,1.22,0,0,0,.89-.37,1.25,1.25,0,0,0,0-1.77l-2.36-2.32A1.26,1.26,0,0,0,54.35,16.67Z"/>
            </g>
        </g>
    </svg>