<svg xmlns="http://www.w3.org/2000/svg" viewBox="0 0 1791.11 682.89" class="logo-svg"><defs><style>.cls-1{fill:#585b6b;}.cls-2{fill:#e37b7d;}</style></defs><title>wamiz-v3_1</title><g data-name="Calque 2"><g data-name="Calque 1"><path class="cls-1" d="M786.91,374.67v-4.78a30.41,30.41,0,0,1,10.42-23.28,35.57,35.57,0,0,1,24.89-9.56q15.63,0,26,9.26t10.41,22.57V623a33,33,0,0,1-10.87,25.18Q836.92,658.28,821,658.28q-15.28,0-25.57-10t-10.29-24.83v-5.7q-21.31,24.54-37.72,32.53t-44,8q-58.74,0-98.17-45.93T565.81,498.24q0-68.74,39.94-115t99-46.22q27.21,0,42.84,7.05T786.91,374.67ZM714,404.19q-32.41,0-52.67,26t-20.25,68.67q0,42.13,19.67,68.09t52.1,26q34.14,0,53.25-24.81t19.1-69.83q0-43.28-19.1-68.66T714,404.19Z"/><path class="cls-1" d="M1153.29,382.19q6.36-7.51,10.13-11.28a48.51,48.51,0,0,1,7.23-6.08,100.18,100.18,0,0,1,35-20.55,130.65,130.65,0,0,1,43.7-7.23q49.19,0,79.3,29.46t30.09,78V620.72a37.35,37.35,0,0,1-10.33,26.58,34,34,0,0,1-25.84,11,36.65,36.65,0,0,1-26.14-10.72q-11.21-10.74-11.19-27V452.92q0-22.6-15.42-38.57t-36.37-16q-24.43,0-41.6,16t-17.16,38.57V620.58a36.45,36.45,0,0,1-11,26.69q-11,11-27.21,11-14.46,0-24.88-11a37.16,37.16,0,0,1-10.42-26.57V453.84q0-22.51-15.92-39t-39.07-16.46q-22.57,0-39.36,16.21t-16.78,38.78V621.24a36.53,36.53,0,0,1-10.42,26,33.76,33.76,0,0,1-25.47,11,37.23,37.23,0,0,1-26.62-10.44q-11-10.43-11-26.67V368.94q0-13.33,11-22.61t26.62-9.28a32.42,32.42,0,0,1,23.15,9.41,30.54,30.54,0,0,1,9.84,22.93v4.7l10.42-13.89q11-10.43,30.1-16.79a122,122,0,0,1,38.78-6.36,124.41,124.41,0,0,1,21.42,1.73A115.35,115.35,0,0,1,1111,346a90.52,90.52,0,0,1,22,12.44Q1141.71,365.41,1153.29,382.19Z"/><path class="cls-1" d="M1410.27,262.38q0-18.51,12.93-31A43.56,43.56,0,0,1,1454.54,219q17.25,0,29.9,12.74T1497.09,263q0,18.53-12.36,31a40.94,40.94,0,0,1-30.19,12.44,43.56,43.56,0,0,1-31.34-12.44Q1410.27,281.48,1410.27,262.38Zm80.45,358.34a37.35,37.35,0,0,1-10.33,26.58,34,34,0,0,1-25.84,11,37.35,37.35,0,0,1-37.33-37V374.61a37.35,37.35,0,0,1,37.33-37q14.35,0,25.26,11a36.31,36.31,0,0,1,10.91,26.57Z"/><path class="cls-1" d="M1636,586.51h118.65a37.38,37.38,0,0,1,25.76,9.55q10.69,9.56,10.7,23.44a31.46,31.46,0,0,1-10.41,23.73q-10.42,9.85-26,9.84H1561.91q-31.85,0-31.83-28.36a26.22,26.22,0,0,1,2.31-10.13,70.07,70.07,0,0,1,4-8.39l139.49-198H1568.86a34.22,34.22,0,0,1-24.31-9.84q-10.42-9.84-10.42-23.15a30.93,30.93,0,0,1,10.13-23.44,34.51,34.51,0,0,1,24.6-9.55H1750.6q11.57,0,16.78,1.44t10.42,9a27.89,27.89,0,0,1,5.21,16.21q0,9.86-6.36,19.1Z"/><path class="cls-2" d="M494.75,0q20.89,0,41.81,27.87Q518.44,648,452.93,648.05H439q-62.7,0-139.37-264.8L250.86,285.7Q178.38,682.89,125.43,682.89q-72,0-90.58-202.08Q0,276.42,0,181.17l41.8-13.93q48.8,0,48.79,243.89,19,118.44,34.84,118.45,20.9-76.64,34.84-125.42Q185.35,132.41,216,132.4l7-7q77.58,0,181.18,348.41l13.93,34.85H432L473.37,9.29Q459.9,0,494.75,0"/><path class="cls-1" d="M1740.53,70.12c-98.9-41.49-176.48-.24-177.24.18a4,4,0,0,0,3.8,7c.75-.4,75.15-39.75,170.39.18a4,4,0,1,0,3-7.34"/><path class="cls-1" d="M1305.46,140a4,4,0,1,0,.17-8c-.87,0-89.76-1.38-147.53,72.76a4,4,0,1,0,6.29,4.9c55.25-70.89,140.19-69.71,141.07-69.69"/><path class="cls-1" d="M1303.9,97.86a4,4,0,1,0,2.68-7.49c-.83-.3-83.88-29-175.13,27.37a4,4,0,0,0,4.2,6.78c87.85-54.25,167.46-26.95,168.25-26.66"/><path class="cls-1" d="M1570.71,111.28a4,4,0,0,0,1.42,7.83c.85-.15,84.57-14.53,150.15,46.92a4,4,0,1,0,5.48-5.81c-68.6-64.26-156.19-49.11-157-48.94"/><path class="cls-2" d="M1445.22,166.06c-5.91,30.55-74.09,40.17-74.09,40.17,1.39,17.22,8.11,65.25,40.46,88.55,13.47,9.69,29.73,14,48.29,12.86s33.8-7.42,45.18-18.64c27.4-27,24.6-75.28,22.57-92.46-28.52-.42-63.67-10.7-82.41-30.48"/><path class="cls-1" d="M1585.7,158.19c-21.06,29.68-65.55,39-99.2,20.81-24.51-13.27-32.66-36.3-35.35-51.55,0-2.74-.09-5.21-.21-7.4,22.87-11.77,72.15-52.83,32.36-59.54,0,0-35.45-11.06-90.74,7.09-38.33,12.58,16.74,45.83,41.21,53.84.2,2.15.5,4.63.92,7.3-.29,15.48-4.74,39.49-26.91,56.41-30.39,23.22-75.81,20.92-101.22-5.13a8.23,8.23,0,0,0-11.8,11.48c19.44,20,48.41,28.59,76.37,25.31,0,0,68.18-12.13,74.09-50.75,18.74,25,53.89,38,82.41,38.52,28.14-1.1,55.39-14.14,71.51-36.87a8.24,8.24,0,1,0-13.44-9.52"/></g></g></svg>